<svg id="Capa_1" data-name="Capa 1" xmlns="http://www.w3.org/2000/svg" viewBox="0 0 260 50.9">
  <title>logo</title>
  <g id="_Group_" data-name="&lt;Group&gt;">
    <g id="_Group_2" data-name="&lt;Group&gt;">
      <path id="_Compound_Path_" data-name="&lt;Compound Path&gt;" d="M581.8,338.7a4,4,0,0,1,1.6-.8,8.7,8.7,0,0,1,2.1-.4h1a5.6,5.6,0,0,1,3.5,1.3v-3.5c0-2-.1-3.2-.4-3.7a.9.9,0,0,0-.9-.5,2.9,2.9,0,0,1-1-.3V330h.8l2-.4h.6l1.6-.4h.9a1.1,1.1,0,0,1,.1.5v8.5a12.2,12.2,0,0,0-.1,2.2v1.5a2,2,0,0,0,.1.7v1.4a5.3,5.3,0,0,0-.1,1.4,8.1,8.1,0,0,0,.1,1.6v3.4l1.5.3h.6a.5.5,0,0,1,.1.3,1.1,1.1,0,0,1-.1.5l-1.4.3a11.1,11.1,0,0,0-3.3.8l-.7.3h-.4v-2l-.6.4a9.7,9.7,0,0,1-2.1,1,6.8,6.8,0,0,1-2.1.2,5.9,5.9,0,0,1-3.4-.8,6.2,6.2,0,0,1-2.5-2.9,9.5,9.5,0,0,1-.7-3.8A7.5,7.5,0,0,1,581.8,338.7Zm5.1,11.6h.6l1.2-.3,1.4-.7v-.7c0-3.7-.1-5.9-.2-6.7a3.8,3.8,0,0,0-1.1-2.4,3.3,3.3,0,0,0-2.2-.8,3.5,3.5,0,0,0-1.4.3l-1.1.8a5.1,5.1,0,0,0-.9,1.8,8.8,8.8,0,0,0,.7,6.9A4.2,4.2,0,0,0,586.9,350.3Z" transform="translate(-578.7 -328.9)" style="fill: #3179a7"/>
      <path id="_Compound_Path_2" data-name="&lt;Compound Path&gt;" d="M597.7,342.9a8.8,8.8,0,0,1,.8-2,9.2,9.2,0,0,1,2-2.3,8.8,8.8,0,0,1,1.9-1l1.8-.4a9.3,9.3,0,0,1,2.6.3,5.9,5.9,0,0,1,1.6.7,10.3,10.3,0,0,1,1.5,1.4,4.6,4.6,0,0,1,.9,1.7,5.3,5.3,0,0,1,.4,2.3h-9.8v.4a6.8,6.8,0,0,0,.2,2,4.8,4.8,0,0,0,.6,1.8,7.6,7.6,0,0,0,1.1,1.4l1.3.8,1,.3h1.7l1.5-.4a5.3,5.3,0,0,0,1.4-1,4.5,4.5,0,0,1,1,.9,9.3,9.3,0,0,1-3,2.4,8.6,8.6,0,0,1-3.6.8,6.2,6.2,0,0,1-2.1-.3,6.1,6.1,0,0,1-2-.9,8.1,8.1,0,0,1-1.6-1.6,9.3,9.3,0,0,1-1-2,6.9,6.9,0,0,1-.4-2.2A21.3,21.3,0,0,1,597.7,342.9Zm9.8-.8a5.8,5.8,0,0,0-.4-1.8,2.6,2.6,0,0,0-1.1-1.4,2.4,2.4,0,0,0-1.5-.6,2.7,2.7,0,0,0-2,1.1,4.7,4.7,0,0,0-1,2.8h6Z" transform="translate(-578.7 -328.9)" style="fill: #3179a7"/>
      <path id="_Compound_Path_3" data-name="&lt;Compound Path&gt;" d="M633,329.8l.9,3a9.9,9.9,0,0,1,.3,2.4h-1.5a10.9,10.9,0,0,0-3.4-3.4,7,7,0,0,0-3.8-1,5.1,5.1,0,0,0-4.2,2.1c-1.4,1.9-2.1,4.6-2.1,8a19.9,19.9,0,0,0,.3,4.2,9.8,9.8,0,0,0,1.6,3.4,3.8,3.8,0,0,0,1.8,1.5,6.2,6.2,0,0,0,6.7-.4,11.2,11.2,0,0,0,3.3-3.5l1.6-.2a6.8,6.8,0,0,1-.2,1.4c0,.2-.2.9-.4,2.2v.6l-.3.8a7.3,7.3,0,0,1-2.8,1.2,20.7,20.7,0,0,1-4.6.4,16.1,16.1,0,0,1-3.9-.4,9.7,9.7,0,0,1-3.1-1.3,9.9,9.9,0,0,1-3-2.7,10.7,10.7,0,0,1-1.6-3.2,12.3,12.3,0,0,1-.6-3.9,11.7,11.7,0,0,1,3.3-8.6,11.1,11.1,0,0,1,8.4-3.4,24.2,24.2,0,0,1,3.9.2A18.2,18.2,0,0,1,633,329.8Z" transform="translate(-578.7 -328.9)" style="fill: #3179a7"/>
      <path id="_Compound_Path_4" data-name="&lt;Compound Path&gt;" d="M651.1,348.9l.4.3c.1,0,.2.1.2.3h0a4.1,4.1,0,0,1-1.1,2.2,2.1,2.1,0,0,1-1.6.6,2.7,2.7,0,0,1-1.7-.6,4.6,4.6,0,0,1-1.3-2,4.3,4.3,0,0,1-2,2,6.3,6.3,0,0,1-3.2.7,3.8,3.8,0,0,1-2.6-.8,2.8,2.8,0,0,1-.8-2,2.7,2.7,0,0,1,.3-1.2,2.6,2.6,0,0,1,.7-1.1,7,7,0,0,1,1.8-1.3l1.3-.6,4.1-1.8a5.7,5.7,0,0,0,.1-1.3,6.4,6.4,0,0,0-.6-3.3,1.3,1.3,0,0,0-1.1-.5,4.1,4.1,0,0,0-1.6.3,2.2,2.2,0,0,0-1,.9,3.4,3.4,0,0,0-.4,1.5l-.2.8a2.2,2.2,0,0,1-.9.7l-.9.3a2.6,2.6,0,0,1-1.5.5.8.8,0,0,1-.2-.6,3.1,3.1,0,0,1,.4-1.7,8.1,8.1,0,0,1,1.8-2,7.8,7.8,0,0,1,2.3-1.3,8.9,8.9,0,0,1,3.5-.5,5.2,5.2,0,0,1,2.3.5,2.7,2.7,0,0,1,1.3,1.5,10.7,10.7,0,0,1,.4,3.7v5.6a2.2,2.2,0,0,0,.2,1c.1.2.3.2.5.2h.3l.5-.8Zm-5.5-4.1a10.8,10.8,0,0,0-2.1,1.1,6.7,6.7,0,0,0-1.7,1.6,3.2,3.2,0,0,0-.3,1.4,2,2,0,0,0,.4,1.3,1.4,1.4,0,0,0,1,.5,2.3,2.3,0,0,0,1.6-.6,3.1,3.1,0,0,0,1-1.2,10,10,0,0,0,.2-2.5A8.6,8.6,0,0,0,645.6,344.8Z" transform="translate(-578.7 -328.9)" style="fill: #3179a7"/>
      <path id="_Compound_Path_5" data-name="&lt;Compound Path&gt;" d="M652.8,351h.4a3.5,3.5,0,0,0,1.6-.3.4.4,0,0,0,.1-.3c0-.1.1-1.1.1-3.2V342a2.1,2.1,0,0,0-.3-1.2,5,5,0,0,0-1.9-.8v-.8l.7-.2a8.8,8.8,0,0,0,2.6-.9,6.4,6.4,0,0,0,1.5-1.4h.9v2.6a12.5,12.5,0,0,1,2.6-1.7,6.6,6.6,0,0,1,2.5-.4,5.4,5.4,0,0,1,2.5.6,4.5,4.5,0,0,1,2.1,2,9,9,0,0,1,2-1.7l1.5-.6a5.7,5.7,0,0,1,1.8-.3,4.7,4.7,0,0,1,3.7,1.5,5.8,5.8,0,0,1,1.3,4v7.1a1.4,1.4,0,0,0,.2.7l1.1.4.7.2v.9h-7.2a2,2,0,0,1-.1-.7v-.2l1.4-.6c.2-.2.3-.3.3-.4a8.2,8.2,0,0,0,.1-1.9v-4.9a10.6,10.6,0,0,0-.2-2.1,3.9,3.9,0,0,0-.5-1.3,2.2,2.2,0,0,0-.9-.7,2,2,0,0,0-1.1-.3,3.4,3.4,0,0,0-1.9.5,5.7,5.7,0,0,0-1.8,1.7v7.9a3.3,3.3,0,0,0,.2,1.4,4.1,4.1,0,0,0,1.7.4l.5.2a1.8,1.8,0,0,1,.1.6v.5h-8.3V351l1.8-.2h.2l.3-.4v-5.9a19.3,19.3,0,0,0-.2-3.4,2.8,2.8,0,0,0-1-1.4,3.5,3.5,0,0,0-1.8-.5,3.5,3.5,0,0,0-2.3.7q-1,.6-1.2,1.2v.5h0a1.1,1.1,0,0,1-.1.5v8.4l.8.2.9.3a1.1,1.1,0,0,1,.1.5,3.5,3.5,0,0,0-.1.6h-7.6V351Z" transform="translate(-578.7 -328.9)" style="fill: #3179a7"/>
      <path id="_Compound_Path_6" data-name="&lt;Compound Path&gt;" d="M680.9,361.1v-.8l.5-.3,1.3-.4c.5-.3.8-.4.9-.6a3.9,3.9,0,0,0,.2-1.8v-7l-.2-8.7c0-.6-.1-1.1-.4-1.3a3.6,3.6,0,0,0-1.7-.9v-.9a13.6,13.6,0,0,0,2.8-.8,11.2,11.2,0,0,0,2.2-1.3h.9v2.9a13.1,13.1,0,0,1,2.4-1.2,9.5,9.5,0,0,1,3-.4,5.4,5.4,0,0,1,3.1.9l.3.2a6.8,6.8,0,0,1,1.2,1.2,14.2,14.2,0,0,1,1.2,2.5,6.9,6.9,0,0,1,.3,2.2,8.5,8.5,0,0,1-2,5.7,9.4,9.4,0,0,1-2.4,1.8,6.2,6.2,0,0,1-2.7.5h-1.9l-2.3-1v.8a.9.9,0,0,1,.1.5,11.3,11.3,0,0,0-.1,1.4v5l.3.4.4.2.9.2.8.2a.8.8,0,0,1,.2.5,1.1,1.1,0,0,1-.1.5h-1.6l-2.6-.2h-4.9Zm6.4-12.5v.3a2.3,2.3,0,0,0,.4,1.1l1.2.9,1.8.3a5.3,5.3,0,0,0,1.7-.4,3.5,3.5,0,0,0,1.3-1.1l.2-.2.2-.4a5.9,5.9,0,0,0,.7-2.9,7.7,7.7,0,0,0-1.6-4.8,3.7,3.7,0,0,0-3.2-1.4,7.9,7.9,0,0,0-2.8.6v8Z" transform="translate(-578.7 -328.9)" style="fill: #3179a7"/>
      <path id="_Compound_Path_7" data-name="&lt;Compound Path&gt;" d="M714.5,339.4a8.2,8.2,0,0,1,1.6,2.5,8.6,8.6,0,0,1,.5,2.7,7.9,7.9,0,0,1-.7,3.7,7.1,7.1,0,0,1-2.8,3.3,8.9,8.9,0,0,1-4.1,1,7.8,7.8,0,0,1-4.4-1.2,8.4,8.4,0,0,1-2.6-2.8,9.3,9.3,0,0,1-.8-3.9,6.7,6.7,0,0,1,.4-2.4,4.7,4.7,0,0,1,1-2,6.7,6.7,0,0,1,1.4-1.5,5.7,5.7,0,0,1,2.3-1.2,9.6,9.6,0,0,1,2.7-.4A7.3,7.3,0,0,1,714.5,339.4Zm-9.2,6.1c.1,1.4.2,2.3.2,2.5a9.3,9.3,0,0,0,.7,2,2.7,2.7,0,0,0,1.1,1,4.3,4.3,0,0,0,1.7.4,3.2,3.2,0,0,0,2.1-.8,6.3,6.3,0,0,0,1.2-2.6,29.9,29.9,0,0,0,.2-3.7c0-2.2-.3-3.7-1-4.6a3.3,3.3,0,0,0-4.8-.5,4.2,4.2,0,0,0-1.1,2.2A17,17,0,0,0,705.3,345.5Z" transform="translate(-578.7 -328.9)" style="fill: #3179a7"/>
      <path id="_Compound_Path_8" data-name="&lt;Compound Path&gt;" d="M733.3,348.9l.4.3c.1,0,.2.1.2.3h0a4.1,4.1,0,0,1-1.1,2.2,2.1,2.1,0,0,1-1.6.6,2.7,2.7,0,0,1-1.7-.6,4.6,4.6,0,0,1-1.3-2,4.3,4.3,0,0,1-2,2,6.3,6.3,0,0,1-3.2.7,3.8,3.8,0,0,1-2.6-.8,2.8,2.8,0,0,1-.8-2,5,5,0,0,1,.2-1.2,4.4,4.4,0,0,1,.8-1.1,7,7,0,0,1,1.8-1.3l1.3-.6,4.1-1.8a5.7,5.7,0,0,0,.1-1.3,6.4,6.4,0,0,0-.6-3.3,1.3,1.3,0,0,0-1.1-.5,4.1,4.1,0,0,0-1.6.3,2.2,2.2,0,0,0-1,.9,3.4,3.4,0,0,0-.4,1.5l-.2.8a2.2,2.2,0,0,1-.9.7l-.9.3a2.6,2.6,0,0,1-1.5.5.8.8,0,0,1-.2-.6,3.1,3.1,0,0,1,.4-1.7,8.1,8.1,0,0,1,1.8-2,7.8,7.8,0,0,1,2.3-1.3,8.9,8.9,0,0,1,3.5-.5,5.2,5.2,0,0,1,2.3.5,2.7,2.7,0,0,1,1.3,1.5,10.7,10.7,0,0,1,.4,3.7v5.6a2.2,2.2,0,0,0,.2,1c.1.2.3.2.5.2h.3l.5-.8Zm-5.5-4.1a10.8,10.8,0,0,0-2.1,1.1,6.7,6.7,0,0,0-1.7,1.6,3.2,3.2,0,0,0-.3,1.4,2,2,0,0,0,.4,1.3,1.4,1.4,0,0,0,1,.5,2.3,2.3,0,0,0,1.6-.6,3.1,3.1,0,0,0,1-1.2,10,10,0,0,0,.2-2.5A8.6,8.6,0,0,0,727.8,344.8Z" transform="translate(-578.7 -328.9)" style="fill: #9edbf4"/>
      <path id="_Compound_Path_9" data-name="&lt;Compound Path&gt;" d="M754.8,329.8a19.6,19.6,0,0,1,.9,3,9.9,9.9,0,0,1,.3,2.4h-1.5a11.9,11.9,0,0,0-3.3-3.4,7,7,0,0,0-3.8-1,5,5,0,0,0-4.2,2.1,13.3,13.3,0,0,0-2.2,8,18.2,18.2,0,0,0,.4,4.2,12,12,0,0,0,1.5,3.4,4.7,4.7,0,0,0,1.9,1.5,5.5,5.5,0,0,0,3.1.8,6.5,6.5,0,0,0,3.6-1.2,14,14,0,0,0,3.3-3.5l1.6-.2c-.1.5-.1.9-.2,1.4a14.7,14.7,0,0,0-.4,2.2l-.2.6-.2.8a7.9,7.9,0,0,1-2.9,1.2,19.2,19.2,0,0,1-4.5.4,16.1,16.1,0,0,1-3.9-.4,10.2,10.2,0,0,1-3.2-1.3,13.1,13.1,0,0,1-3-2.7,13.7,13.7,0,0,1-1.6-3.2,16,16,0,0,1-.5-3.9,11.7,11.7,0,0,1,3.3-8.6,11.1,11.1,0,0,1,8.4-3.4,24.2,24.2,0,0,1,3.9.2A17.2,17.2,0,0,1,754.8,329.8Z" transform="translate(-578.7 -328.9)" style="fill: #3179a7"/>
      <path id="_Compound_Path_10" data-name="&lt;Compound Path&gt;" d="M773,348.9l.4.3c.1,0,.1.1.1.3h.1a4.9,4.9,0,0,1-1.1,2.2,2.3,2.3,0,0,1-1.6.6,2.5,2.5,0,0,1-1.7-.6,4.6,4.6,0,0,1-1.3-2,4.8,4.8,0,0,1-2,2,6.6,6.6,0,0,1-3.2.7,3.7,3.7,0,0,1-2.6-.8,2.4,2.4,0,0,1-.8-2,5,5,0,0,1,.2-1.2,2.8,2.8,0,0,1,.8-1.1,5.6,5.6,0,0,1,1.8-1.3l1.2-.6,4.2-1.8v-1.3a6.6,6.6,0,0,0-.5-3.3,1.4,1.4,0,0,0-1.2-.5,4,4,0,0,0-1.5.3,2.2,2.2,0,0,0-1,.9,3.4,3.4,0,0,0-.4,1.5c-.1.5-.2.8-.3.8s-.4.5-.9.7l-.9.3a2.6,2.6,0,0,1-1.4.5c-.2-.1-.2-.3-.2-.6a3.1,3.1,0,0,1,.4-1.7,8.1,8.1,0,0,1,1.8-2,7.4,7.4,0,0,1,2.2-1.3,9.8,9.8,0,0,1,3.6-.5,5.6,5.6,0,0,1,2.3.5,2.7,2.7,0,0,1,1.3,1.5,10.7,10.7,0,0,1,.4,3.7v5.6c0,.5,0,.8.2,1s.3.2.5.2h.3l.5-.8Zm-5.5-4.1a9,9,0,0,0-2.2,1.1,6,6,0,0,0-1.6,1.6,2.3,2.3,0,0,0-.4,1.4,2.1,2.1,0,0,0,.5,1.3,1.4,1.4,0,0,0,1,.5,2.5,2.5,0,0,0,1.6-.6,3.1,3.1,0,0,0,1-1.2,13,13,0,0,0,.1-2.5Z" transform="translate(-578.7 -328.9)" style="fill: #3179a7"/>
      <path id="_Compound_Path_11" data-name="&lt;Compound Path&gt;" d="M774.7,351h.4a3.1,3.1,0,0,0,1.5-.3l.2-.3c0-.1,0-1.1.1-3.2V342a1.6,1.6,0,0,0-.4-1.2c-.2-.3-.8-.5-1.9-.8v-.8l.8-.2a7.3,7.3,0,0,0,2.5-.9,6.7,6.7,0,0,0,1.6-1.4h.9v2.6a15.9,15.9,0,0,1,2.7-1.7,6.1,6.1,0,0,1,2.4-.4,5.8,5.8,0,0,1,2.6.6,4.3,4.3,0,0,1,2,2,12,12,0,0,1,2-1.7l1.6-.6a5.7,5.7,0,0,1,1.8-.3,4.8,4.8,0,0,1,3.7,1.5,5.8,5.8,0,0,1,1.3,4v7.1a.8.8,0,0,0,.2.7l1.1.4.6.2c0,.3.1.4.1.6v.3h-7.2a2,2,0,0,1-.1-.7v-.2l1.4-.6.3-.4v-6.8a10.6,10.6,0,0,0-.2-2.1,3.9,3.9,0,0,0-.5-1.3,2.2,2.2,0,0,0-.9-.7,2.4,2.4,0,0,0-1.2-.3,3.6,3.6,0,0,0-1.9.5,5.5,5.5,0,0,0-1.7,1.7v7.9a3.3,3.3,0,0,0,.2,1.4,3.5,3.5,0,0,0,1.6.4l.6.2a3.5,3.5,0,0,0,.1.6,1.1,1.1,0,0,1-.1.5h-8.3V351l1.8-.2h.2l.2-.4a4.5,4.5,0,0,0,.1-1.4v-4.5a24.8,24.8,0,0,0-.1-3.4,2.8,2.8,0,0,0-1-1.4,3.5,3.5,0,0,0-1.8-.5,4,4,0,0,0-2.4.7,2.4,2.4,0,0,0-1.1,1.2c0,.1-.1.2-.1.3v.2h0a4.3,4.3,0,0,0-.1.5v7.7c0,.1.1.2.1.4v.3l.8.2.9.3a4.3,4.3,0,0,0,.1.5,3.9,3.9,0,0,1-.2.6h-7.5c0-.2-.1-.4-.1-.6A1.1,1.1,0,0,1,774.7,351Z" transform="translate(-578.7 -328.9)" style="fill: #3179a7"/>
      <path id="_Compound_Path_12" data-name="&lt;Compound Path&gt;" d="M802.8,361.1v-.8c.2-.1.4-.2.4-.3l1.3-.4c.6-.3.9-.4.9-.6a3.6,3.6,0,0,0,.3-1.8v-7l-.2-8.7a2,2,0,0,0-.4-1.3,3.6,3.6,0,0,0-1.8-.9v-.9a15.8,15.8,0,0,0,2.8-.8l2.2-1.3h.9v2.9a8.9,8.9,0,0,1,2.4-1.2,9.5,9.5,0,0,1,3-.4,5.1,5.1,0,0,1,3,.9l.3.2a3.4,3.4,0,0,1,1.2,1.2,7.2,7.2,0,0,1,1.2,2.5,6.9,6.9,0,0,1,.3,2.2,9,9,0,0,1-.4,3.1,7.3,7.3,0,0,1-1.6,2.6,7.6,7.6,0,0,1-2.3,1.8,6.5,6.5,0,0,1-2.7.5h-2l-2.2-1v5.9a3.5,3.5,0,0,0-.1.7v.2c0,.4.1.7.1.9l.3.4.3.2.9.2.9.2a.7.7,0,0,1,.1.5v.5h-1.7l-2.5-.2h-4.9Zm6.3-12.5a.4.4,0,0,1,.1.3,3.8,3.8,0,0,0,.5,1.1,2.7,2.7,0,0,0,1.2.9l1.8.3a5.9,5.9,0,0,0,1.7-.4,3.5,3.5,0,0,0,1.3-1.1l.2-.2c.1-.2.1-.3.2-.4a7.7,7.7,0,0,0-1-7.7,3.6,3.6,0,0,0-3.2-1.4,7.4,7.4,0,0,0-2.7.6,32.6,32.6,0,0,0-.1,3.9v3.4A2.6,2.6,0,0,1,809.1,348.6Z" transform="translate(-578.7 -328.9)" style="fill: #3179a7"/>
      <path id="_Compound_Path_13" data-name="&lt;Compound Path&gt;" d="M836.3,339.4a6.7,6.7,0,0,1,1.6,2.5,6.6,6.6,0,0,1,.6,2.7,9.4,9.4,0,0,1-.7,3.7,7.7,7.7,0,0,1-2.8,3.3,9.2,9.2,0,0,1-4.1,1,8.2,8.2,0,0,1-4.5-1.2,9.6,9.6,0,0,1-2.6-2.8,9.4,9.4,0,0,1-.7-3.9,9.9,9.9,0,0,1,.3-2.4,9.3,9.3,0,0,1,1-2,7.1,7.1,0,0,1,1.5-1.5,6,6,0,0,1,2.2-1.2,11.1,11.1,0,0,1,2.8-.4A7.1,7.1,0,0,1,836.3,339.4Zm-9.1,6.1a19.1,19.1,0,0,0,.2,2.5,5.9,5.9,0,0,0,.7,2,2.4,2.4,0,0,0,1,1,4.8,4.8,0,0,0,1.8.4,2.8,2.8,0,0,0,2-.8,5.3,5.3,0,0,0,1.3-2.6,29.9,29.9,0,0,0,.2-3.7c0-2.2-.3-3.7-1-4.6a3.5,3.5,0,0,0-2.7-1.3,3.2,3.2,0,0,0-2.1.8,3.6,3.6,0,0,0-1.2,2.2A30.1,30.1,0,0,0,827.2,345.5Z" transform="translate(-578.7 -328.9)" style="fill: #3179a7"/>
    </g>
    <g id="_Group_3" data-name="&lt;Group&gt;">
      <path id="_Compound_Path_14" data-name="&lt;Compound Path&gt;" d="M708.7,375.5a1.4,1.4,0,0,1,.2.6,1.4,1.4,0,0,0,.2-.6l.3-.5,3.7-6.8.2-.2h1.9v11.8h-1.7v-9l-3.7,7a.8.8,0,0,1-.7.4h-.3a.8.8,0,0,1-.7-.4l-3.8-7v9h-1.6V367.9h1.8a.2.2,0,0,1,.2.2l3.8,6.9A.8.8,0,0,1,708.7,375.5Z" transform="translate(-578.7 -328.9)" style="fill: #777"/>
      <path id="_Compound_Path_15" data-name="&lt;Compound Path&gt;" d="M720.9,371.2a3.5,3.5,0,0,1,1.4.3,2.6,2.6,0,0,1,1.1.7,2.4,2.4,0,0,1,.7,1.2,3.8,3.8,0,0,1,.3,1.6.7.7,0,0,1-.1.5c0,.1-.1.1-.3.1h-5.4a5,5,0,0,0,.3,1.3,2.2,2.2,0,0,0,.5.8,1.2,1.2,0,0,0,.7.5,1.6,1.6,0,0,0,1,.2h.9l.6-.3.5-.2.4-.2.3.2.5.7-.7.6-.8.4-.9.2h-1a4.5,4.5,0,0,1-1.6-.3,3.4,3.4,0,0,1-1.2-.9,2.8,2.8,0,0,1-.9-1.4,5,5,0,0,1-.3-1.9,4.5,4.5,0,0,1,.3-1.6,3.5,3.5,0,0,1,.8-1.3,2.7,2.7,0,0,1,1.2-.9A4.3,4.3,0,0,1,720.9,371.2Zm0,1.3a2.5,2.5,0,0,0-1.5.5,2.6,2.6,0,0,0-.7,1.6h4.1a2.8,2.8,0,0,0-.1-.9l-.4-.6a1,1,0,0,0-.6-.5Z" transform="translate(-578.7 -328.9)" style="fill: #777"/>
      <path id="_Compound_Path_16" data-name="&lt;Compound Path&gt;" d="M726,379.7v-8.4h1.4a.5.5,0,0,1,.2.4v1.1a7.3,7.3,0,0,1,.9-1.3,2.3,2.3,0,0,1,1.4-.4h.5l.4.2v1.3a.3.3,0,0,1-.1.2H729l-.5.3-.4.5-.3.7v5.2Z" transform="translate(-578.7 -328.9)" style="fill: #777"/>
      <path id="_Compound_Path_17" data-name="&lt;Compound Path&gt;" d="M737.7,373H737l-.4-.2-.5-.2h-.7a1.6,1.6,0,0,0-1,.2,1.8,1.8,0,0,0-.7.5,3,3,0,0,0-.4,1,3.7,3.7,0,0,0,0,2.4,3,3,0,0,0,.4,1,1.8,1.8,0,0,0,.7.5,1.5,1.5,0,0,0,.9.2h.9l.5-.3.4-.2.3-.2.3.2.5.7-.7.6-.7.4-.9.2H735a3.2,3.2,0,0,1-1.4-.3,3.6,3.6,0,0,1-1.2-.8,6.4,6.4,0,0,1-.8-1.4,4.8,4.8,0,0,1-.3-1.8,4.7,4.7,0,0,1,.3-1.7,6.1,6.1,0,0,1,.7-1.4,3.8,3.8,0,0,1,1.3-.9,4.7,4.7,0,0,1,1.7-.3,4.1,4.1,0,0,1,1.6.3,3.6,3.6,0,0,1,1.2.8Z" transform="translate(-578.7 -328.9)" style="fill: #777"/>
      <path id="_Compound_Path_18" data-name="&lt;Compound Path&gt;" d="M745,379.7h-.4l-.2-.3-.2-.7-.6.5-.7.4-.7.2h-1.7l-.8-.5a1.8,1.8,0,0,1-.5-.7,2.4,2.4,0,0,1-.2-.9,1.7,1.7,0,0,1,.3-1,1.5,1.5,0,0,1,.8-.8l1.6-.6a12.9,12.9,0,0,1,2.4-.3v-.5a2.6,2.6,0,0,0-.4-1.4,1.5,1.5,0,0,0-1.1-.4h-.9l-.6.3-.4.3h-.8c0-.1-.1-.1-.2-.2l-.3-.6a4.8,4.8,0,0,1,3.4-1.3l1.2.2,1,.7.6,1a5.1,5.1,0,0,1,.2,1.3v5.3Zm-3.1-1.1a2.1,2.1,0,0,0,1.2-.3l1-.7V376l-1.6.2-1.1.3a1,1,0,0,0-.5.4.7.7,0,0,0-.2.6.9.9,0,0,0,.1.5c0,.1.1.2.2.3l.4.2Z" transform="translate(-578.7 -328.9)" style="fill: #777"/>
      <path id="_Compound_Path_19" data-name="&lt;Compound Path&gt;" d="M753.8,379.7a.4.4,0,0,1-.4-.4l-.2-.9-.5.6-.7.4-.7.3h-.8a2.8,2.8,0,0,1-1.3-.3,3.9,3.9,0,0,1-1-.8,4.5,4.5,0,0,1-.6-1.4,5,5,0,0,1-.2-1.8,8.8,8.8,0,0,1,.2-1.7,6.1,6.1,0,0,1,.7-1.4,2.7,2.7,0,0,1,1.2-.9,3.3,3.3,0,0,1,1.5-.3l1.2.2a3.1,3.1,0,0,1,.9.7v-4.5h1.8v12.1Zm-2.7-1.3a2,2,0,0,0,1.1-.3l.9-.8v-3.9a2.7,2.7,0,0,0-.8-.7l-.9-.2a1.8,1.8,0,0,0-1.6.8,3.4,3.4,0,0,0-.6,2.2,4.9,4.9,0,0,0,.1,1.3,1.9,1.9,0,0,0,.4.9,1,1,0,0,0,.6.5Z" transform="translate(-578.7 -328.9)" style="fill: #777"/>
      <path id="_Compound_Path_20" data-name="&lt;Compound Path&gt;" d="M760.6,371.2a4.7,4.7,0,0,1,1.7.3,3.8,3.8,0,0,1,1.3.9,4.1,4.1,0,0,1,.8,1.3,4.8,4.8,0,0,1,.3,1.8,5.2,5.2,0,0,1-.3,1.8,5.7,5.7,0,0,1-.8,1.3,3.8,3.8,0,0,1-1.3.9,5,5,0,0,1-3.4,0,2.7,2.7,0,0,1-1.2-.9,3.8,3.8,0,0,1-.9-1.3,9.9,9.9,0,0,1-.2-1.8,9,9,0,0,1,.2-1.8,3,3,0,0,1,.9-1.3,2.7,2.7,0,0,1,1.2-.9A4.7,4.7,0,0,1,760.6,371.2Zm0,7.2a1.9,1.9,0,0,0,1.7-.7,5.1,5.1,0,0,0,0-4.4,1.9,1.9,0,0,0-1.7-.7,2.1,2.1,0,0,0-1.7.7,5.1,5.1,0,0,0,0,4.4A2.1,2.1,0,0,0,760.6,378.4Z" transform="translate(-578.7 -328.9)" style="fill: #777"/>
      <path id="_Compound_Path_21" data-name="&lt;Compound Path&gt;" d="M775.8,379.8a6.6,6.6,0,0,1-2.5-.5,4.5,4.5,0,0,1-2-1.2,5,5,0,0,1-1.3-1.9,6.1,6.1,0,0,1-.4-2.4,6.9,6.9,0,0,1,.4-2.5,5.1,5.1,0,0,1,3.1-3.1,6.9,6.9,0,0,1,2.5-.4H777l1.1.3,1,.5.8.6-.6.9-.3.2h-.5l-.5-.3-.6-.3-.8-.2h-1a4.7,4.7,0,0,0-1.7.3,3.8,3.8,0,0,0-1.3.9,4.7,4.7,0,0,0-.8,1.4,4.8,4.8,0,0,0-.3,1.8,5.8,5.8,0,0,0,.3,1.9,4.2,4.2,0,0,0,.9,1.4,3.5,3.5,0,0,0,1.3.8,5.3,5.3,0,0,0,1.8.4l1.3-.2,1.1-.4v-2.4h-1.6c-.2,0-.3,0-.3-.1s-.1-.1-.1-.2v-1.1h3.7v4.6A6.5,6.5,0,0,1,775.8,379.8Z" transform="translate(-578.7 -328.9)" style="fill: #777"/>
      <path id="_Compound_Path_22" data-name="&lt;Compound Path&gt;" d="M787.2,379.7h-.4c0-.1-.1-.2-.2-.3l-.2-.7-.6.5-.6.4-.7.2h-1.8l-.8-.5-.5-.7a2.4,2.4,0,0,1-.2-.9,1.7,1.7,0,0,1,.3-1,2.4,2.4,0,0,1,.9-.8l1.5-.6a15.7,15.7,0,0,1,2.4-.3v-.5a2,2,0,0,0-.4-1.4,1.2,1.2,0,0,0-1.1-.4h-.9l-.6.3-.4.3h-.7l-.2-.2-.4-.6a4.8,4.8,0,0,1,3.4-1.3l1.3.2a2.2,2.2,0,0,1,.9.7,2.1,2.1,0,0,1,.6,1,5.1,5.1,0,0,1,.2,1.3v5.3Zm-3-1.1a2,2,0,0,0,1.1-.3l1-.7V376l-1.6.2-1,.3a.9.9,0,0,0-.6.4,1.4,1.4,0,0,0-.2.6c0,.2.1.3.1.5l.3.3a.5.5,0,0,0,.4.2Z" transform="translate(-578.7 -328.9)" style="fill: #777"/>
      <path id="_Compound_Path_23" data-name="&lt;Compound Path&gt;" d="M790.1,379.7v-8.4h1c.3,0,.4.1.5.4v.7a1.2,1.2,0,0,0,.5-.5l.7-.4.7-.2h.8l1.2.2a2.7,2.7,0,0,1,.8.7,2.1,2.1,0,0,1,.6,1,5.1,5.1,0,0,1,.2,1.3v5.3h-1.8v-5.3a1.7,1.7,0,0,0-.4-1.3c-.2-.4-.6-.5-1.2-.5a2.3,2.3,0,0,0-1.1.3,2.8,2.8,0,0,0-.9.7v6.1Z" transform="translate(-578.7 -328.9)" style="fill: #777"/>
      <path id="_Compound_Path_24" data-name="&lt;Compound Path&gt;" d="M804.6,379.7h-.4l-.2-.3-.2-.7-.6.5-.7.4-.7.2H800l-.7-.5a1.8,1.8,0,0,1-.5-.7,2.4,2.4,0,0,1-.2-.9,1.7,1.7,0,0,1,.3-1,1.5,1.5,0,0,1,.8-.8l1.6-.6a12.9,12.9,0,0,1,2.4-.3v-.5a2.6,2.6,0,0,0-.4-1.4,1.6,1.6,0,0,0-1.2-.4h-.8l-.6.3-.4.3h-.8l-.2-.2-.3-.6a4.7,4.7,0,0,1,3.4-1.3l1.2.2,1,.7.6,1a5.1,5.1,0,0,1,.2,1.3v5.3Zm-3.1-1.1a2.1,2.1,0,0,0,1.2-.3l1-.7V376l-1.6.2-1.1.3a1,1,0,0,0-.5.4.7.7,0,0,0-.2.6.9.9,0,0,0,.1.5c0,.1.1.2.2.3l.4.2Z" transform="translate(-578.7 -328.9)" style="fill: #777"/>
      <path id="_Compound_Path_25" data-name="&lt;Compound Path&gt;" d="M813.4,379.7a.4.4,0,0,1-.4-.4l-.2-.9-.5.6-.7.4-.7.3h-.8a2.8,2.8,0,0,1-1.3-.3,3.9,3.9,0,0,1-1-.8,4.5,4.5,0,0,1-.6-1.4,5,5,0,0,1-.2-1.8,8.8,8.8,0,0,1,.2-1.7,6.1,6.1,0,0,1,.7-1.4,2.7,2.7,0,0,1,1.2-.9,3.3,3.3,0,0,1,1.5-.3l1.2.2a3.1,3.1,0,0,1,.9.7v-4.5h1.8v12.1Zm-2.7-1.3a2,2,0,0,0,1.1-.3l.9-.8v-3.9a2.7,2.7,0,0,0-.8-.7l-.9-.2a1.8,1.8,0,0,0-1.6.8,3.4,3.4,0,0,0-.6,2.2,4.9,4.9,0,0,0,.1,1.3,1.9,1.9,0,0,0,.4.9,1,1,0,0,0,.6.5Z" transform="translate(-578.7 -328.9)" style="fill: #777"/>
      <path id="_Compound_Path_26" data-name="&lt;Compound Path&gt;" d="M820.1,371.2a3.2,3.2,0,0,1,1.4.3,2.1,2.1,0,0,1,1.1.7,2.5,2.5,0,0,1,.8,1.2,3.8,3.8,0,0,1,.3,1.6,4.3,4.3,0,0,1-.1.5h-5.7a5.1,5.1,0,0,0,.2,1.3,2.2,2.2,0,0,0,.5.8,1.4,1.4,0,0,0,.8.5,1.5,1.5,0,0,0,.9.2h.9l.7-.3.5-.2.3-.2c.2,0,.3.1.3.2l.5.7-.7.6-.8.4-.9.2h-.9a4.1,4.1,0,0,1-1.6-.3,3.8,3.8,0,0,1-1.3-.9,2.7,2.7,0,0,1-.8-1.4,5,5,0,0,1-.3-1.9,4.4,4.4,0,0,1,.2-1.6,5.7,5.7,0,0,1,.8-1.3,3,3,0,0,1,1.3-.9A3.8,3.8,0,0,1,820.1,371.2Zm0,1.3a2.5,2.5,0,0,0-1.5.5,3.4,3.4,0,0,0-.7,1.6h4.2c0-.3-.1-.6-.1-.9l-.4-.6-.6-.5Z" transform="translate(-578.7 -328.9)" style="fill: #777"/>
      <path id="_Compound_Path_27" data-name="&lt;Compound Path&gt;" d="M825.3,379.7v-8.4h1.4c.1.1.1.2.1.4v1.1a4.5,4.5,0,0,1,1-1.3,2,2,0,0,1,1.3-.4h.5l.5.2-.2,1.3c0,.1,0,.2-.1.2s-.1.1-.2.1h-1.4l-.5.3-.4.5a1.6,1.6,0,0,0-.4.7v5.2Z" transform="translate(-578.7 -328.9)" style="fill: #777"/>
      <path id="_Compound_Path_28" data-name="&lt;Compound Path&gt;" d="M834.6,371.2a4.7,4.7,0,0,1,1.7.3,3.8,3.8,0,0,1,1.3.9,4.1,4.1,0,0,1,.8,1.3,4.8,4.8,0,0,1,.3,1.8,5.2,5.2,0,0,1-.3,1.8,5.7,5.7,0,0,1-.8,1.3,3.8,3.8,0,0,1-1.3.9,5,5,0,0,1-3.4,0,2.7,2.7,0,0,1-1.2-.9,2.6,2.6,0,0,1-.8-1.3,5.2,5.2,0,0,1-.3-1.8,4.8,4.8,0,0,1,.3-1.8,2.2,2.2,0,0,1,.8-1.3,2.7,2.7,0,0,1,1.2-.9A4.7,4.7,0,0,1,834.6,371.2Zm0,7.2a1.9,1.9,0,0,0,1.7-.7,5.1,5.1,0,0,0,0-4.4,1.9,1.9,0,0,0-1.7-.7,2.1,2.1,0,0,0-1.7.7,5.1,5.1,0,0,0,0,4.4A2.1,2.1,0,0,0,834.6,378.4Z" transform="translate(-578.7 -328.9)" style="fill: #777"/>
    </g>
  </g>
</svg>
